<?xml version="1.0" encoding="UTF-8" standalone="no"?>
<!-- Generator: Adobe Illustrator 27.0.1, SVG Export Plug-In . SVG Version: 6.00 Build 0)  -->

<svg
   version="1.1"
   id="Calque_2_00000126304672677260817780000013240694675635848582_"
   x="0px"
   y="0px"
   viewBox="0 0 4000 1131"
   style="enable-background:new 0 0 4000 1131;"
   xml:space="preserve"
   sodipodi:docname="logo-CoARA-menu_white.svg"
   inkscape:version="1.3.2 (091e20e, 2023-11-25)"
   xmlns:inkscape="http://www.inkscape.org/namespaces/inkscape"
   xmlns:sodipodi="http://sodipodi.sourceforge.net/DTD/sodipodi-0.dtd"
   xmlns="http://www.w3.org/2000/svg"
   xmlns:svg="http://www.w3.org/2000/svg"><defs
   id="defs30" /><sodipodi:namedview
   id="namedview30"
   pagecolor="#ffffff"
   bordercolor="#000000"
   borderopacity="0.25"
   inkscape:showpageshadow="2"
   inkscape:pageopacity="0.0"
   inkscape:pagecheckerboard="0"
   inkscape:deskcolor="#d1d1d1"
   inkscape:zoom="0.19425"
   inkscape:cx="2000"
   inkscape:cy="566.28057"
   inkscape:window-width="1392"
   inkscape:window-height="1027"
   inkscape:window-x="2040"
   inkscape:window-y="25"
   inkscape:window-maximized="0"
   inkscape:current-layer="Calque_2_00000126304672677260817780000013240694675635848582_" />
<style
   type="text/css"
   id="style1">
	.st0{fill:#0F0F55;}
	.st1{fill:url(#SVGID_1_);}
	.st2{fill:url(#SVGID_00000152969404786160506020000003359244155129020328_);}
	.st3{fill:url(#SVGID_00000140014479679500426580000017598212991480459666_);}
	.st4{fill:url(#SVGID_00000081631121475698399790000008820114186539362177_);}
	.st5{fill:url(#SVGID_00000012432840053003625570000013785915850579132326_);}
	.st6{fill:url(#SVGID_00000079460420736334509510000008855173237544069292_);}
	.st7{fill:url(#SVGID_00000067199443052515850450000011510595184965545125_);}
	.st8{fill:url(#SVGID_00000064312738723181116400000017076580587922075018_);}
</style>
<g
   id="Calque_1-2">
	<g
   id="g30">
		<g
   id="g5">
			<path
   class="st0"
   d="M1372.4,565c0-152.2,113-267.3,267.4-267.3c123.4,0,219.3,76,249.6,186.1h-113     c-24.4-53.2-73.9-85.7-137.4-85.7c-95.2,0-160.3,70.2-160.3,166.9s65,166.9,160.3,166.9c63.5,0,113-32.5,137.4-85.7h113     c-30.3,110.1-126.3,186.1-249.6,186.1C1485.4,832.3,1372.4,717,1372.4,565z"
   id="path1"
   style="fill:#ffffff" />
			<path
   class="st0"
   d="M2389.1,565c0,122.6-93.1,212-212,212c-118.9,0-211.3-90.1-211.3-212s94.6-212,211.3-212     C2293.8,353,2389.1,442.4,2389.1,565z M2072.3,565c0,67.2,45.8,111.5,104.9,111.5s104.9-44.3,104.9-111.5     s-45.8-111.5-104.9-111.5S2072.3,498.5,2072.3,565z"
   id="path2"
   style="fill:#ffffff" />
			<path
   class="st0"
   d="M2761.8,701.6h-209l-44.3,121.9h-111.5l193.6-517.1h133.7l193.6,517.1h-112.3L2762,701.6H2761.8z      M2724.9,601.1l-67.9-187.6L2589,601.1H2724.9z"
   id="path3"
   style="fill:#ffffff" />
			<path
   class="st0"
   d="M3158.4,637.3h-58.3v186.1h-105.6V306.4h222.4c110.8,0,176.5,65.8,176.5,168.4     c0,84.2-43.6,135.9-115.9,154.4l144.8,194.2h-130L3158.4,637.3L3158.4,637.3z M3100.1,545H3205c55.4,0,81.2-26.6,81.2-68.7     s-26.6-69.4-81.2-69.4h-104.9V545z"
   id="path4"
   style="fill:#ffffff" />
			<path
   class="st0"
   d="M3827.6,701.6h-209l-44.3,121.9h-111.5l193.6-517.1H3790l193.6,517.1h-112.3l-43.6-121.9H3827.6z      M3790.7,601.1l-67.9-187.6l-67.9,187.6H3790.7z"
   id="path5"
   style="fill:#ffffff" />
		</g>
		<g
   id="g29">
			
				<linearGradient
   id="SVGID_1_"
   gradientUnits="userSpaceOnUse"
   x1="246.8968"
   y1="-1237.7905"
   x2="246.8968"
   y2="-250.0204"
   gradientTransform="matrix(1 0 0 -1 0 118)">
				<stop
   offset="0"
   style="stop-color:#004493"
   id="stop5" />
				<stop
   offset="0.5"
   style="stop-color:#0D29F8"
   id="stop6" />
				<stop
   offset="1"
   style="stop-color:#00B7F1"
   id="stop7" />
			</linearGradient>
			<path
   class="st1"
   d="M268.4,308.1c6.5,6.5,15,9.7,23.5,9.7c8.6,0,17-3.2,23.5-9.7c13-13,13-34,0-47L225.3,171c-13-13-34-13-47,0     s-13,34,0,47L268.4,308.1L268.4,308.1z"
   id="path7" />
			
				<linearGradient
   id="SVGID_00000176735351585272182340000005727188394434060419_"
   gradientUnits="userSpaceOnUse"
   x1="246.8497"
   y1="-1237.7905"
   x2="246.8497"
   y2="-250.0204"
   gradientTransform="matrix(1 0 0 -1 0 118)">
				<stop
   offset="0"
   style="stop-color:#004493"
   id="stop8" />
				<stop
   offset="4.000000e-02"
   style="stop-color:#01429B"
   id="stop9" />
				<stop
   offset="0.5"
   style="stop-color:#0D29F8"
   id="stop10" />
				<stop
   offset="1"
   style="stop-color:#00B7F1"
   id="stop11" />
			</linearGradient>
			<path
   style="fill:url(#SVGID_00000176735351585272182340000005727188394434060419_);"
   d="M268.4,815l-90.1,90.1     c-13,13-13,34,0,47c6.5,6.5,15,9.7,23.5,9.7c8.6,0,17-3.2,23.5-9.7l90.1-90.1c13-13,13-34,0-47C302.5,802,281.5,802,268.4,815     L268.4,815z"
   id="path11" />
			
				<linearGradient
   id="SVGID_00000160181517945631520930000000648060312627903135_"
   gradientUnits="userSpaceOnUse"
   x1="890.9187"
   y1="-1237.7905"
   x2="890.9187"
   y2="-250.0204"
   gradientTransform="matrix(1 0 0 -1 0 118)">
				<stop
   offset="0"
   style="stop-color:#004493"
   id="stop12" />
				<stop
   offset="0.5"
   style="stop-color:#0D29F8"
   id="stop13" />
				<stop
   offset="1"
   style="stop-color:#00B7F1"
   id="stop14" />
			</linearGradient>
			<path
   style="fill:url(#SVGID_00000160181517945631520930000000648060312627903135_);"
   d="M845.8,317.9c8.5,0,17-3.2,23.5-9.7     l90.1-90.1c13-13,13-34,0-47c-13-13-34-13-47,0l-90.1,90.1c-13,13-13,34,0,47C828.9,314.7,837.3,317.9,845.8,317.9L845.8,317.9z"
   id="path14" />
			
				<linearGradient
   id="SVGID_00000007410095645394640300000017912042621031097005_"
   gradientUnits="userSpaceOnUse"
   x1="570.131"
   y1="-1195.5396"
   x2="570.131"
   y2="-207.7695"
   gradientTransform="matrix(1 0 0 -1 0 118)">
				<stop
   offset="0"
   style="stop-color:#004493"
   id="stop15" />
				<stop
   offset="0.5"
   style="stop-color:#0D29F8"
   id="stop16" />
				<stop
   offset="1"
   style="stop-color:#00B7F1"
   id="stop17" />
			</linearGradient>
			<path
   style="fill:url(#SVGID_00000007410095645394640300000017912042621031097005_);"
   d="M593.6,63.7c13-13,13-34,0-47     s-34-13-47,0c-13,13-13,34,0,47S580.6,76.7,593.6,63.7z"
   id="path17" />
			
				<linearGradient
   id="SVGID_00000145766030836588606050000002398112453778844095_"
   gradientUnits="userSpaceOnUse"
   x1="1080.8129"
   y1="-1040.7446"
   x2="1080.8129"
   y2="-52.9746"
   gradientTransform="matrix(1 0 0 -1 0 118)">
				<stop
   offset="0"
   style="stop-color:#004493"
   id="stop18" />
				<stop
   offset="0.5"
   style="stop-color:#0D29F8"
   id="stop19" />
				<stop
   offset="1"
   style="stop-color:#00B7F1"
   id="stop20" />
			</linearGradient>
			<path
   style="fill:url(#SVGID_00000145766030836588606050000002398112453778844095_);"
   d="M1057.3,539.4c-13,13-13,34,0,47     c13,13,34,13,47,0c13-13,13-34,0-47C1091.3,526.4,1070.3,526.4,1057.3,539.4z"
   id="path20" />
			
				<linearGradient
   id="SVGID_00000000906281281556853720000006826646420071349383_"
   gradientUnits="userSpaceOnUse"
   x1="570.131"
   y1="-1280.0415"
   x2="570.131"
   y2="-292.2715"
   gradientTransform="matrix(1 0 0 -1 0 118)">
				<stop
   offset="0"
   style="stop-color:#004493"
   id="stop21" />
				<stop
   offset="0.5"
   style="stop-color:#0D29F8"
   id="stop22" />
				<stop
   offset="1"
   style="stop-color:#00B7F1"
   id="stop23" />
			</linearGradient>
			<path
   style="fill:url(#SVGID_00000000906281281556853720000006826646420071349383_);"
   d="M546.7,1057.3c-13,13-13,34,0,47     c13,13,34,13,47,0c13-13,13-34,0-47C580.6,1044.3,559.6,1044.3,546.7,1057.3z"
   id="path23" />
			
				<linearGradient
   id="SVGID_00000098192019171158626690000007919862313732928668_"
   gradientUnits="userSpaceOnUse"
   x1="49.6627"
   y1="-1039.4272"
   x2="49.6627"
   y2="-51.6572"
   gradientTransform="matrix(1 0 0 -1 0 118)">
				<stop
   offset="0"
   style="stop-color:#004493"
   id="stop24" />
				<stop
   offset="0.5"
   style="stop-color:#0D29F8"
   id="stop25" />
				<stop
   offset="1"
   style="stop-color:#00B7F1"
   id="stop26" />
			</linearGradient>
			<path
   style="fill:url(#SVGID_00000098192019171158626690000007919862313732928668_);"
   d="M26.2,538.1c-13,13-13,34,0,47     s34,13,47,0s13-34,0-47C60.2,525.1,39.2,525.1,26.2,538.1z"
   id="path26" />
			
				<linearGradient
   id="SVGID_00000060739561600922764200000010258913074092668552_"
   gradientUnits="userSpaceOnUse"
   x1="632.9194"
   y1="-1237.7905"
   x2="632.9194"
   y2="-250.0204"
   gradientTransform="matrix(1 0 0 -1 0 118)">
				<stop
   offset="0"
   style="stop-color:#004493"
   id="stop27" />
				<stop
   offset="0.5"
   style="stop-color:#0D29F8"
   id="stop28" />
				<stop
   offset="1"
   style="stop-color:#00B7F1"
   id="stop29" />
			</linearGradient>
			<path
   style="fill:url(#SVGID_00000060739561600922764200000010258913074092668552_);"
   d="M783.1,728.9     c36.1-46.2,57.7-104.3,57.7-167.3c0-150-122-272-272-272s-272,122-272,272s122,272,272,272c63,0,121.1-21.5,167.3-57.7     l176.2,176.2c6.5,6.5,15,9.7,23.5,9.7s17-3.2,23.5-9.7c13-13,13-34,0-47L783.1,728.9L783.1,728.9z M568.8,767.1     c-113.4,0-205.6-92.2-205.6-205.6s92.2-205.6,205.6-205.6s205.6,92.2,205.6,205.6S682.2,767.1,568.8,767.1z"
   id="path29" />
		</g>
	</g>
</g>
</svg>
